<?xml version="1.0" encoding="iso-8859-1"?>
<!-- Generator: Adobe Illustrator 16.0.0, SVG Export Plug-In . SVG Version: 6.00 Build 0)  -->
<!DOCTYPE svg PUBLIC "-//W3C//DTD SVG 1.1//EN" "http://www.w3.org/Graphics/SVG/1.1/DTD/svg11.dtd">
<svg version="1.1" id="Capa_1" xmlns="http://www.w3.org/2000/svg" xmlns:xlink="http://www.w3.org/1999/xlink" x="0px" y="0px"
	 width="39.295px" height="39.296px" viewBox="0 0 39.295 39.296" style="enable-background:new 0 0 39.295 39.296;"
	 xml:space="preserve">
<g>
	<g>
		<path d="M12.686,10.258c0.773-0.297,1.161-1.164,0.865-1.938s-1.163-1.16-1.937-0.865c-4.971,1.902-8.311,6.757-8.311,12.081
			v6.828c0,7.131,5.801,12.933,12.932,12.933h6.825c7.132,0,12.933-5.802,12.933-12.933v-6.826c0-5.27-3.15-9.968-8.025-11.968
			C27.2,7.257,26.325,7.622,26.01,8.387c-0.314,0.767,0.052,1.642,0.818,1.957c3.744,1.536,6.164,5.145,6.164,9.191v6.828
			c0,5.478-4.455,9.933-9.933,9.933h-6.825c-5.477,0-9.932-4.455-9.932-9.933v-6.826C6.303,15.448,8.869,11.718,12.686,10.258z"/>
		<path d="M21.149,18.655V1.5c0-0.828-0.673-1.5-1.5-1.5c-0.828,0-1.5,0.672-1.5,1.5v17.155c0,0.828,0.672,1.5,1.5,1.5
			C20.476,20.154,21.149,19.482,21.149,18.655z"/>
	</g>
</g>
<g>
</g>
<g>
</g>
<g>
</g>
<g>
</g>
<g>
</g>
<g>
</g>
<g>
</g>
<g>
</g>
<g>
</g>
<g>
</g>
<g>
</g>
<g>
</g>
<g>
</g>
<g>
</g>
<g>
</g>
</svg>
